<svg width="443" height="47" viewBox="0 0 443 47" fill="none" xmlns="http://www.w3.org/2000/svg">
<path d="M38.016 1.02399H53.12L44.16 45.824H29.056L38.016 1.02399ZM15.104 45.824H-5.97537e-06L8.95999 1.02399H24.064L15.104 45.824ZM33.344 29.312H17.408L19.904 16.896H35.84L33.344 29.312ZM46.5735 45.824L75.1175 1.02399H89.9655L100.589 45.824H85.5495L78.3175 8H84.2055L62.5095 45.824H46.5735ZM59.7575 38.016L65.7735 27.136H86.3815L88.0455 38.016H59.7575ZM103 45.824L111.96 1.02399H124.376L141.208 28.288H135.96L141.4 1.02399H156.12L147.16 45.824H134.744L117.912 18.56H123.16L117.72 45.824H103ZM154.437 45.824L163.397 1.02399H183.621C188.357 1.02399 192.432 1.79199 195.845 3.328C199.259 4.864 201.883 7.06133 203.717 9.91999C205.552 12.736 206.469 16.1067 206.469 20.032C206.469 24 205.765 27.5627 204.357 30.72C202.992 33.8773 201.051 36.5867 198.533 38.848C196.059 41.1093 193.115 42.8373 189.701 44.032C186.288 45.2267 182.533 45.824 178.437 45.824H154.437ZM171.909 34.048H178.949C181.637 34.048 183.877 33.472 185.669 32.32C187.504 31.1253 188.891 29.5467 189.829 27.584C190.768 25.5787 191.237 23.36 191.237 20.928C191.237 19.1787 190.875 17.7067 190.149 16.512C189.467 15.3173 188.421 14.4 187.013 13.76C185.648 13.12 183.941 12.8 181.893 12.8H176.133L171.909 34.048ZM201.823 45.824L230.367 1.02399H245.215L255.839 45.824H240.799L233.567 8H239.455L217.759 45.824H201.823ZM215.007 38.016L221.023 27.136H241.631L243.295 38.016H215.007ZM258.25 45.824L267.21 1.02399H287.306C293.237 1.02399 297.823 2.32533 301.066 4.92799C304.309 7.48799 305.93 11.0933 305.93 15.744C305.93 19.4987 304.991 22.784 303.114 25.6C301.279 28.416 298.655 30.6133 295.242 32.192C291.871 33.7707 287.882 34.56 283.274 34.56H268.81L276.874 28.224L273.354 45.824H258.25ZM285.642 45.824L276.426 29.504H291.978L301.322 45.824H285.642ZM276.49 30.016L271.178 23.168H284.042C286.133 23.168 287.754 22.656 288.906 21.632C290.058 20.5653 290.634 19.0933 290.634 17.216C290.634 15.5947 290.122 14.4427 289.098 13.76C288.117 13.0347 286.751 12.672 285.002 12.672H273.29L281.354 5.632L276.49 30.016ZM331.153 46.848C326.503 46.848 322.471 45.9947 319.057 44.288C315.687 42.5813 313.063 40.2347 311.185 37.248C309.351 34.2187 308.433 30.7413 308.433 26.816C308.433 22.848 309.116 19.2427 310.481 16C311.889 12.7147 313.852 9.87733 316.369 7.488C318.887 5.09866 321.873 3.26399 325.329 1.98399C328.785 0.661329 332.561 -3.8147e-06 336.657 -3.8147e-06C341.308 -3.8147e-06 345.319 0.853329 348.689 2.55999C352.103 4.26666 354.727 6.63466 356.561 9.664C358.439 12.6507 359.377 16.1067 359.377 20.032C359.377 24 358.673 27.6267 357.265 30.912C355.9 34.1547 353.959 36.9707 351.441 39.36C348.924 41.7493 345.937 43.6053 342.481 44.928C339.025 46.208 335.249 46.848 331.153 46.848ZM332.433 34.624C334.311 34.624 335.953 34.2613 337.361 33.536C338.812 32.8107 340.049 31.808 341.073 30.528C342.097 29.248 342.865 27.7973 343.377 26.176C343.889 24.512 344.145 22.7627 344.145 20.928C344.145 19.1787 343.783 17.664 343.057 16.384C342.375 15.0613 341.372 14.0373 340.049 13.312C338.769 12.5867 337.212 12.224 335.377 12.224C333.543 12.224 331.9 12.5867 330.449 13.312C328.999 14.0373 327.761 15.04 326.737 16.32C325.713 17.6 324.945 19.072 324.433 20.736C323.921 22.3573 323.665 24.0853 323.665 25.92C323.665 27.6267 324.007 29.1413 324.689 30.464C325.415 31.7867 326.417 32.8107 327.697 33.536C329.02 34.2613 330.599 34.624 332.433 34.624Z" fill="#3B82F6"/>
<path d="M376.047 45.824L405.487 1.02399H410.159L421.679 45.824H416.943L406.447 3.64799H408.367L381.167 45.824H376.047ZM386.479 33.856L388.655 30.016H414.703L415.407 33.856H386.479ZM429.09 45.824L438.05 1.02399H442.722L433.762 45.824H429.09Z" fill="#94A3B8"/>
</svg>
