<svg width="434" height="47" viewBox="0 0 434 47" fill="none" xmlns="http://www.w3.org/2000/svg">
<rect width="434" height="47" fill="#1E1E1E"/>
<path d="M38.016 1.02399H53.12L44.16 45.824H29.056L38.016 1.02399ZM15.104 45.824H-5.97537e-06L8.95999 1.02399H24.064L15.104 45.824ZM33.344 29.312H17.408L19.904 16.896H35.84L33.344 29.312ZM46.5735 45.824L75.1175 1.02399H89.9655L100.589 45.824H85.5495L78.3175 8H84.2055L62.5095 45.824H46.5735ZM59.7575 38.016L65.7735 27.136H86.3815L88.0455 38.016H59.7575ZM103 45.824L111.96 1.02399H124.376L141.208 28.288H135.96L141.4 1.02399H156.12L147.16 45.824H134.744L117.912 18.56H123.16L117.72 45.824H103ZM154.437 45.824L163.397 1.02399H183.621C188.357 1.02399 192.432 1.79199 195.845 3.328C199.259 4.864 201.883 7.06133 203.717 9.91999C205.552 12.736 206.469 16.1067 206.469 20.032C206.469 24 205.765 27.5627 204.357 30.72C202.992 33.8773 201.051 36.5867 198.533 38.848C196.059 41.1093 193.115 42.8373 189.701 44.032C186.288 45.2267 182.533 45.824 178.437 45.824H154.437ZM171.909 34.048H178.949C181.637 34.048 183.877 33.472 185.669 32.32C187.504 31.1253 188.891 29.5467 189.829 27.584C190.768 25.5787 191.237 23.36 191.237 20.928C191.237 19.1787 190.875 17.7067 190.149 16.512C189.467 15.3173 188.421 14.4 187.013 13.76C185.648 13.12 183.941 12.8 181.893 12.8H176.133L171.909 34.048ZM201.823 45.824L230.367 1.02399H245.215L255.839 45.824H240.799L233.567 8H239.455L217.759 45.824H201.823ZM215.007 38.016L221.023 27.136H241.631L243.295 38.016H215.007ZM258.25 45.824L267.21 1.02399H282.314L275.722 34.112H295.946L293.578 45.824H258.25ZM322.341 46.848C317.69 46.848 313.658 45.9947 310.245 44.288C306.874 42.5813 304.25 40.2347 302.373 37.248C300.538 34.2187 299.621 30.7413 299.621 26.816C299.621 22.848 300.304 19.2427 301.669 16C303.077 12.7147 305.04 9.87733 307.557 7.488C310.074 5.09866 313.061 3.26399 316.517 1.98399C319.973 0.661329 323.749 -3.8147e-06 327.845 -3.8147e-06C332.496 -3.8147e-06 336.506 0.853329 339.877 2.55999C343.29 4.26666 345.914 6.63466 347.749 9.664C349.626 12.6507 350.565 16.1067 350.565 20.032C350.565 24 349.861 27.6267 348.453 30.912C347.088 34.1547 345.146 36.9707 342.629 39.36C340.112 41.7493 337.125 43.6053 333.669 44.928C330.213 46.208 326.437 46.848 322.341 46.848ZM323.621 34.624C325.498 34.624 327.141 34.2613 328.549 33.536C330 32.8107 331.237 31.808 332.261 30.528C333.285 29.248 334.053 27.7973 334.565 26.176C335.077 24.512 335.333 22.7627 335.333 20.928C335.333 19.1787 334.97 17.664 334.245 16.384C333.562 15.0613 332.56 14.0373 331.237 13.312C329.957 12.5867 328.4 12.224 326.565 12.224C324.73 12.224 323.088 12.5867 321.637 13.312C320.186 14.0373 318.949 15.04 317.925 16.32C316.901 17.6 316.133 19.072 315.621 20.736C315.109 22.3573 314.853 24.0853 314.853 25.92C314.853 27.6267 315.194 29.1413 315.877 30.464C316.602 31.7867 317.605 32.8107 318.885 33.536C320.208 34.2613 321.786 34.624 323.621 34.624Z" fill="#1E40AF"/>
<path d="M367.234 45.824L396.674 1.02399H401.346L412.866 45.824H408.13L397.634 3.64799H399.554L372.354 45.824H367.234ZM377.666 33.856L379.842 30.016H405.89L406.594 33.856H377.666ZM420.277 45.824L429.237 1.02399H433.909L424.949 45.824H420.277Z" fill="#334155"/>
</svg>
