<svg width="931" height="272" viewBox="0 0 931 272" fill="none" xmlns="http://www.w3.org/2000/svg">
<rect x="1" y="1" width="269" height="269" fill="#073763" stroke="#073763"/>
<circle cx="135.5" cy="135.5" r="89.5" fill="#EEEEEE" stroke="#073763"/>
<circle cx="135.5" cy="135.5" r="44.5" fill="#073763" stroke="#073763"/>
<path d="M0.5 0.5V270.5L270.5 0.5H0.5Z" fill="#073763" stroke="#073763"/>
<path d="M900.561 175.46C892.267 182.784 884.822 186.446 878.226 186.446C874.345 186.446 871.12 185.185 868.549 182.663C865.979 180.092 864.693 176.891 864.693 173.059C864.693 167.869 866.924 163.213 871.387 159.09C875.849 154.919 885.574 149.39 900.561 142.502V135.664C900.561 130.522 900.27 127.297 899.688 125.987C899.154 124.629 898.112 123.465 896.56 122.495C895.007 121.477 893.261 120.967 891.321 120.967C888.169 120.967 885.574 121.671 883.537 123.077C882.276 123.95 881.645 124.969 881.645 126.133C881.645 127.151 882.324 128.412 883.682 129.916C885.525 132.002 886.447 134.014 886.447 135.955C886.447 138.331 885.549 140.368 883.755 142.066C882.009 143.715 879.705 144.54 876.843 144.54C873.788 144.54 871.217 143.618 869.131 141.775C867.094 139.932 866.076 137.773 866.076 135.3C866.076 131.808 867.458 128.485 870.223 125.333C872.987 122.131 876.843 119.682 881.791 117.984C886.738 116.287 891.879 115.438 897.214 115.438C903.665 115.438 908.758 116.82 912.493 119.585C916.276 122.301 918.725 125.26 919.841 128.461C920.52 130.498 920.859 135.179 920.859 142.502V168.912C920.859 172.016 920.981 173.981 921.223 174.805C921.466 175.581 921.829 176.163 922.314 176.551C922.799 176.939 923.357 177.133 923.988 177.133C925.249 177.133 926.534 176.236 927.844 174.441L930.026 176.188C927.601 179.777 925.079 182.396 922.46 184.045C919.889 185.646 916.955 186.446 913.657 186.446C909.777 186.446 906.745 185.549 904.562 183.754C902.38 181.911 901.046 179.146 900.561 175.46ZM900.561 170.149V147.377C894.692 150.821 890.327 154.507 887.465 158.436C885.574 161.055 884.628 163.698 884.628 166.366C884.628 168.597 885.428 170.561 887.029 172.259C888.241 173.568 889.939 174.223 892.122 174.223C894.547 174.223 897.36 172.865 900.561 170.149Z" fill="#073763"/>
<path d="M825.042 117.475V132.899C829.553 125.866 833.506 121.21 836.901 118.93C840.297 116.602 843.57 115.438 846.723 115.438C849.439 115.438 851.598 116.287 853.198 117.984C854.847 119.633 855.672 121.986 855.672 125.042C855.672 128.291 854.872 130.813 853.271 132.608C851.719 134.403 849.827 135.3 847.596 135.3C845.026 135.3 842.794 134.475 840.903 132.826C839.011 131.177 837.896 130.256 837.556 130.062C837.071 129.771 836.513 129.625 835.883 129.625C834.476 129.625 833.142 130.159 831.881 131.226C829.893 132.875 828.389 135.227 827.371 138.283C825.819 142.987 825.042 148.177 825.042 153.852V169.494L825.115 173.568C825.115 176.333 825.285 178.103 825.625 178.879C826.207 180.189 827.055 181.159 828.171 181.79C829.335 182.372 831.275 182.735 833.991 182.881V185.5H797.25V182.881C800.209 182.638 802.198 181.838 803.216 180.48C804.283 179.073 804.817 175.411 804.817 169.494V131.88C804.817 128 804.623 125.527 804.235 124.459C803.75 123.101 803.047 122.107 802.125 121.477C801.203 120.846 799.579 120.41 797.25 120.167V117.475H825.042Z" fill="#073763"/>
<path d="M759.855 175.46C751.561 182.784 744.116 186.446 737.52 186.446C733.639 186.446 730.414 185.185 727.843 182.663C725.273 180.092 723.987 176.891 723.987 173.059C723.987 167.869 726.218 163.213 730.681 159.09C735.143 154.919 744.868 149.39 759.855 142.502V135.664C759.855 130.522 759.564 127.297 758.982 125.987C758.448 124.629 757.406 123.465 755.854 122.495C754.301 121.477 752.555 120.967 750.615 120.967C747.463 120.967 744.868 121.671 742.831 123.077C741.569 123.95 740.939 124.969 740.939 126.133C740.939 127.151 741.618 128.412 742.976 129.916C744.819 132.002 745.741 134.014 745.741 135.955C745.741 138.331 744.843 140.368 743.049 142.066C741.303 143.715 738.999 144.54 736.137 144.54C733.082 144.54 730.511 143.618 728.425 141.775C726.388 139.932 725.37 137.773 725.37 135.3C725.37 131.808 726.752 128.485 729.517 125.333C732.281 122.131 736.137 119.682 741.084 117.984C746.032 116.287 751.173 115.438 756.508 115.438C762.959 115.438 768.052 116.82 771.787 119.585C775.57 122.301 778.019 125.26 779.135 128.461C779.814 130.498 780.153 135.179 780.153 142.502V168.912C780.153 172.016 780.275 173.981 780.517 174.805C780.76 175.581 781.123 176.163 781.608 176.551C782.093 176.939 782.651 177.133 783.282 177.133C784.543 177.133 785.828 176.236 787.138 174.441L789.32 176.188C786.895 179.777 784.373 182.396 781.754 184.045C779.183 185.646 776.249 186.446 772.951 186.446C769.07 186.446 766.039 185.549 763.856 183.754C761.674 181.911 760.34 179.146 759.855 175.46ZM759.855 170.149V147.377C753.986 150.821 749.621 154.507 746.759 158.436C744.868 161.055 743.922 163.698 743.922 166.366C743.922 168.597 744.722 170.561 746.323 172.259C747.535 173.568 749.233 174.223 751.416 174.223C753.841 174.223 756.654 172.865 759.855 170.149Z" fill="#073763"/>
<path d="M684.191 133.19C693.552 135.373 700.124 138.016 703.907 141.12C709.34 145.534 712.056 151.257 712.056 158.29C712.056 165.711 709.073 171.847 703.107 176.697C695.783 182.566 685.137 185.5 671.168 185.5H621.041V182.808C625.6 182.808 628.68 182.396 630.28 181.571C631.929 180.698 633.069 179.583 633.7 178.225C634.379 176.867 634.718 173.52 634.718 168.185V104.161C634.718 98.8258 634.379 95.4792 633.7 94.1211C633.069 92.7145 631.929 91.599 630.28 90.7744C628.631 89.9499 625.551 89.5376 621.041 89.5376V86.8457H668.331C679.632 86.8457 687.635 87.8643 692.339 89.9014C697.044 91.89 700.755 94.8971 703.471 98.9229C706.187 102.9 707.545 107.144 707.545 111.655C707.545 116.408 705.823 120.652 702.379 124.387C698.936 128.073 692.873 131.007 684.191 133.19ZM657.708 131.226C664.596 131.226 669.664 130.45 672.914 128.897C676.212 127.345 678.734 125.163 680.48 122.35C682.227 119.536 683.1 115.947 683.1 111.582C683.1 107.217 682.227 103.652 680.48 100.887C678.783 98.0741 676.333 95.9399 673.132 94.4849C669.931 93.0298 664.79 92.3265 657.708 92.375V131.226ZM657.708 136.9V168.548L657.636 172.186C657.636 174.805 658.291 176.794 659.6 178.152C660.958 179.461 662.947 180.116 665.566 180.116C669.446 180.116 673.011 179.267 676.261 177.57C679.559 175.824 682.081 173.326 683.827 170.076C685.573 166.778 686.446 163.116 686.446 159.09C686.446 154.483 685.379 150.36 683.245 146.722C681.111 143.036 678.177 140.465 674.442 139.01C670.707 137.555 665.129 136.852 657.708 136.9Z" fill="#073763"/>
<path d="M614.347 149.05H577.024C577.461 158.072 579.862 165.202 584.227 170.44C587.574 174.466 591.599 176.479 596.304 176.479C599.214 176.479 601.858 175.678 604.234 174.078C606.611 172.429 609.157 169.494 611.874 165.274L614.347 166.875C610.661 174.393 606.587 179.728 602.125 182.881C597.662 185.985 592.497 187.537 586.628 187.537C576.539 187.537 568.9 183.657 563.71 175.896C559.539 169.64 557.454 161.879 557.454 152.615C557.454 141.266 560.509 132.244 566.621 125.551C572.78 118.809 579.983 115.438 588.229 115.438C595.116 115.438 601.082 118.275 606.126 123.95C611.219 129.576 613.959 137.943 614.347 149.05ZM596.45 144.176C596.45 136.367 596.013 131.007 595.14 128.097C594.316 125.187 593.006 122.98 591.211 121.477C590.193 120.604 588.835 120.167 587.137 120.167C584.615 120.167 582.554 121.404 580.953 123.877C578.091 128.194 576.661 134.111 576.661 141.629V144.176H596.45Z" fill="#073763"/>
<path d="M519.767 175.46C511.473 182.784 504.028 186.446 497.432 186.446C493.551 186.446 490.326 185.185 487.755 182.663C485.185 180.092 483.899 176.891 483.899 173.059C483.899 167.869 486.131 163.213 490.593 159.09C495.055 154.919 504.78 149.39 519.767 142.502V135.664C519.767 130.522 519.476 127.297 518.894 125.987C518.361 124.629 517.318 123.465 515.766 122.495C514.214 121.477 512.467 120.967 510.527 120.967C507.375 120.967 504.78 121.671 502.743 123.077C501.482 123.95 500.851 124.969 500.851 126.133C500.851 127.151 501.53 128.412 502.888 129.916C504.731 132.002 505.653 134.014 505.653 135.955C505.653 138.331 504.756 140.368 502.961 142.066C501.215 143.715 498.911 144.54 496.049 144.54C492.994 144.54 490.423 143.618 488.337 141.775C486.3 139.932 485.282 137.773 485.282 135.3C485.282 131.808 486.664 128.485 489.429 125.333C492.193 122.131 496.049 119.682 500.997 117.984C505.944 116.287 511.085 115.438 516.42 115.438C522.871 115.438 527.964 116.82 531.699 119.585C535.482 122.301 537.931 125.26 539.047 128.461C539.726 130.498 540.065 135.179 540.065 142.502V168.912C540.065 172.016 540.187 173.981 540.429 174.805C540.672 175.581 541.035 176.163 541.521 176.551C542.006 176.939 542.563 177.133 543.194 177.133C544.455 177.133 545.74 176.236 547.05 174.441L549.232 176.188C546.807 179.777 544.285 182.396 541.666 184.045C539.095 185.646 536.161 186.446 532.863 186.446C528.983 186.446 525.951 185.549 523.769 183.754C521.586 181.911 520.252 179.146 519.767 175.46ZM519.767 170.149V147.377C513.898 150.821 509.533 154.507 506.671 158.436C504.78 161.055 503.834 163.698 503.834 166.366C503.834 168.597 504.634 170.561 506.235 172.259C507.447 173.568 509.145 174.223 511.328 174.223C513.753 174.223 516.566 172.865 519.767 170.149Z" fill="#073763"/>
<path d="M407.508 151.888L434.281 86.8457H474.441V89.5376H471.24C468.33 89.5376 466.002 90.0469 464.256 91.0654C463.043 91.7445 462.073 92.8843 461.346 94.4849C460.812 95.6489 460.545 98.6803 460.545 103.579V168.621C460.545 173.665 460.812 176.818 461.346 178.079C461.879 179.34 462.971 180.456 464.62 181.426C466.269 182.347 468.476 182.808 471.24 182.808H474.441V185.5H422.932V182.808H426.133C429.043 182.808 431.371 182.299 433.117 181.28C434.33 180.601 435.3 179.437 436.027 177.788C436.561 176.624 436.828 173.568 436.828 168.621V95.5034L398.996 185.5H397.25L358.835 96.1582V165.638C358.835 170.488 358.957 173.471 359.199 174.587C359.83 177.012 361.188 179.001 363.273 180.553C365.408 182.056 368.73 182.808 373.241 182.808V185.5H339.483V182.808H340.501C342.684 182.857 344.721 182.517 346.613 181.79C348.504 181.014 349.935 179.995 350.905 178.734C351.875 177.473 352.627 175.702 353.161 173.423C353.258 172.889 353.306 170.416 353.306 166.002V103.579C353.306 98.5833 353.039 95.4792 352.506 94.2666C351.972 93.0055 350.881 91.9142 349.232 90.9927C347.583 90.0226 345.376 89.5376 342.611 89.5376H339.483V86.8457H379.789L407.508 151.888Z" fill="#073763"/>
</svg>
